<?xml version="1.0" encoding="UTF-8"?>
<svg id="Capa_1" xmlns="http://www.w3.org/2000/svg" viewBox="0 0 131.83 129.17">
  <defs>
    <style>
      .cls-1 {
        font-family: Fredoka-Regular, Fredoka;
      }

      .cls-1, .cls-2 {
        fill: #213a8e;
      }

      .cls-3 {
        fill: #f39638;
      }

      .cls-4 {
        fill: #1d1d1b;
        font-family: Fredoka-Light, Fredoka;
        font-weight: 300;
      }

      .cls-5 {
        font-size: 46.5px;
      }
    </style>
  </defs>
  <text class="cls-5" transform="translate(0 117.46)"><tspan class="cls-4" x="0" y="0">TV</tspan><tspan class="cls-1" x="64.87" y="0">ON</tspan></text>
  <path class="cls-3" d="M95.17,30.04v37.08c0,2.23-1.81,4.04-4.04,4.04-.55,0-1.09-.11-1.57-.32-.04-.01-.07-.03-.1-.05l-.72-.42s-.01,0-.02-.01l-22.13-12.79,2.18-1.26.48-.28c1.26-.87,2.1-2.32,2.1-3.97s-.84-3.1-2.1-3.97c-.16-.1-.32-.2-.49-.28h-.01s-2.16-1.26-2.16-1.26l19.01-10.98h.01l9.56-5.53Z"/>
  <path class="cls-2" d="M71.35,52.06c0,1.65-.84,3.1-2.1,3.97l-.48.28-2.18,1.26-22.25,12.86s-.02.02-.04.03l-.5.28s-.02.02-.03.02c-.52.25-1.11.39-1.72.39-2.23,0-4.04-1.8-4.04-4.03v-25.99l9.6-5.54,18.98,10.96,2.16,1.25h.01s.49.29.49.29c1.26.87,2.1,2.32,2.1,3.97Z"/>
  <path class="cls-2" d="M95.17,4.05v25.99l-9.56,5.53h-.01l-18.98-10.97,2.13-1.23.56-.32.03-.02c1.25-.85,2.06-2.29,2.06-3.91s-.83-3.08-2.09-3.94l-.45-.26-2.3-1.34L88.83.71s.02,0,.03-.02l.43-.25s.03-.02.04-.02c.54-.27,1.14-.42,1.79-.42,2.24,0,4.05,1.81,4.05,4.05Z"/>
  <path class="cls-3" d="M71.4,19.12c0,1.62-.81,3.06-2.06,3.91l-.03.02-.56.32-2.13,1.23-19.01,10.99-9.6,5.54V4.06C38.01,1.84,39.82.04,42.04.04c.69,0,1.35.18,1.92.49l22.6,13.05,2.3,1.34.45.26c1.26.86,2.09,2.3,2.09,3.94Z"/>
</svg>