<?xml version="1.0" encoding="UTF-8"?>
<svg id="Capa_1" xmlns="http://www.w3.org/2000/svg" viewBox="0 0 104.06 129.55">
  <defs>
    <style>
      .cls-1 {
        fill: #213a8e;
      }

      .cls-2 {
        fill: #f39638;
      }
    </style>
  </defs>
  <path class="cls-2" d="M104.06,54.69v67.51c0,4.06-3.3,7.36-7.36,7.36-1,0-1.98-.2-2.86-.58-.07-.02-.13-.05-.18-.09l-1.31-.76s-.02,0-.04-.02l-40.29-23.29,3.97-2.29.87-.51c2.29-1.58,3.82-4.22,3.82-7.23s-1.53-5.64-3.82-7.23c-.29-.18-.58-.36-.89-.51l-.02-.02-3.93-2.28,34.61-19.99h.02l17.4-10.07Z"/>
  <path class="cls-1" d="M60.7,94.78c0,3-1.53,5.64-3.82,7.23l-.87.51-3.97,2.29-40.51,23.41s-.04.04-.07.05l-.91.51s-.04.04-.05.04c-.95.46-2.02.71-3.13.71-4.06,0-7.36-3.28-7.36-7.34v-47.32l17.48-10.09,34.55,19.95,3.93,2.28.02.02.89.51c2.29,1.58,3.82,4.22,3.82,7.23Z"/>
  <path class="cls-1" d="M104.06,7.37v47.32l-17.4,10.07h-.02l-34.55-19.97,3.88-2.24,1.02-.58.05-.04c2.28-1.55,3.75-4.17,3.75-7.12s-1.51-5.61-3.8-7.17l-.82-.47-4.19-2.44L92.52,1.29s.04-.02.05-.04l.78-.46s.05-.04.07-.04c.98-.49,2.08-.76,3.26-.76,4.08,0,7.37,3.3,7.37,7.37Z"/>
  <path class="cls-2" d="M60.79,34.81c0,2.95-1.47,5.57-3.75,7.12l-.05.04-1.02.58-3.88,2.24-34.61,20.01L0,74.88V7.39C0,3.35,3.3.07,7.34.07c1.26,0,2.46.33,3.5.89l41.14,23.76,4.19,2.44.82.47c2.29,1.57,3.8,4.19,3.8,7.17Z"/>
</svg>